<svg xmlns="http://www.w3.org/2000/svg" width="200" height="200" class="icon" viewBox="0 0 1024 1024"><path d="M85.333 85.333h853.334q42.666 0 42.666 42.667t-42.666 42.667H85.333q-42.666 0-42.666-42.667t42.666-42.667ZM469.33299999999997 341.333h469.334q42.666 0 42.666 42.667t-42.666 42.667H469.333q-42.666 0-42.666-42.667t42.666-42.667ZM469.33299999999997 597.333h469.334q42.666 0 42.666 42.667t-42.666 42.667H469.333q-42.666 0-42.666-42.667t42.666-42.667ZM85.333 853.333h853.334q42.666 0 42.666 42.667t-42.666 42.667H85.333q-42.666 0-42.666-42.667t42.666-42.667ZM234.027 349.568a42.667 42.667 0 0 1 54.485 65.45l-4.096 3.414L156.459 512l127.957 93.568a42.667 42.667 0 0 1 12.117 55.083l-2.858 4.522a42.667 42.667 0 0 1-55.126 12.16l-4.522-2.901-175.019-128a42.667 42.667 0 0 1-4.096-65.493l4.096-3.414 175.019-128z"/></svg>