<svg xmlns="http://www.w3.org/2000/svg" width="32" height="32" class="icon" viewBox="0 0 1024 1024"><path d="M614.4 192h-256a21.333 21.333 0 0 0-21.333 21.333V819.2a21.333 21.333 0 0 0 21.333 21.333h256a21.333 21.333 0 0 0 21.333-21.333V213.333A21.333 21.333 0 0 0 614.4 192zm89.6 42.667h238.933a21.333 21.333 0 1 0 0-42.667H704a21.333 21.333 0 1 0 0 42.667zm0 153.6h187.733a21.333 21.333 0 1 0 0-42.667H704a21.333 21.333 0 1 0 0 42.667zM942.933 499.2H704a21.333 21.333 0 1 0 0 42.667h238.933a21.333 21.333 0 1 0 0-42.667zm-51.2 145.067H704a21.333 21.333 0 1 0 0 42.666h187.733a21.333 21.333 0 1 0 0-42.666zm-68.266 153.6H704a21.333 21.333 0 1 0 0 42.666h119.467a21.333 21.333 0 1 0 0-42.666zM268.8 490.667H138.77l87.304-87.305a21.316 21.316 0 0 0 0-30.165 21.316 21.316 0 0 0-30.166 0L72.61 496.487a21.316 21.316 0 0 0 0 30.165L195.9 649.95c4.164 4.164 9.625 6.246 15.087 6.246s10.922-2.082 15.087-6.246a21.316 21.316 0 0 0 0-30.165l-86.443-86.452H268.8a21.333 21.333 0 1 0 0-42.666z"/></svg>