<svg xmlns="http://www.w3.org/2000/svg" width="32" height="32" class="icon" viewBox="0 0 1024 1024"><path d="M665.6 192h-256a21.333 21.333 0 0 0-21.333 21.333V819.2a21.333 21.333 0 0 0 21.333 21.333h256a21.333 21.333 0 0 0 21.333-21.333V213.333A21.333 21.333 0 0 0 665.6 192zM320 192H81.067a21.333 21.333 0 1 0 0 42.667H320A21.333 21.333 0 1 0 320 192zM81.067 388.267H268.8a21.333 21.333 0 1 0 0-42.667H81.067a21.333 21.333 0 1 0 0 42.667zM320 499.2H81.067a21.333 21.333 0 1 0 0 42.667H320a21.333 21.333 0 1 0 0-42.667zm-51.2 145.067H81.067a21.333 21.333 0 1 0 0 42.666H268.8a21.333 21.333 0 1 0 0-42.666zm-68.267 153.6H81.067a21.333 21.333 0 1 0 0 42.666h119.466a21.333 21.333 0 1 0 0-42.666zm758.938-301.39L836.164 373.189A21.333 21.333 0 1 0 806 403.362l87.313 87.296H755.2a21.333 21.333 0 1 0 0 42.667h137.25L806 619.785a21.316 21.316 0 0 0 15.087 36.411 21.284 21.284 0 0 0 15.087-6.246L959.47 526.652a21.316 21.316 0 0 0 0-30.174z"/></svg>