<svg xmlns="http://www.w3.org/2000/svg" width="64" height="64" class="icon" viewBox="0 0 1024 1024"><path d="M751.764 496.388c0 85.235-127.885 85.235-127.885 0s127.885-85.236 127.885 0m-319.713 0c0 85.235-127.885 85.235-127.885 0s127.885-85.236 127.885 0m127.885 255.77h-143.87c-35.329 0-63.943 28.614-63.943 63.943s28.614 63.942 63.942 63.942h143.871c35.329 0 63.943-28.614 63.943-63.942s-28.614-63.943-63.943-63.943zM11.613 996.435a63.895 63.895 0 0 0 97.848 8.744l116.535-116.535a102.468 102.468 0 0 0 0-144.99l-116.535-116.52a63.815 63.815 0 0 0-51.954-18.415 63.959 63.959 0 0 0-47.013 28.774 65.014 65.014 0 0 0 9.607 81.255l97.544 97.529-95.913 95.913h-.064a66.58 66.58 0 0 0-10.055 84.245z"/><path d="M917.983 51.97a127.87 127.87 0 0 0-159.857-37.725A461.89 461.89 0 0 0 644.468 96.73a416.17 416.17 0 0 0-233.23 0 459.268 459.268 0 0 0-113.946-83.094 127.87 127.87 0 0 0-159.856 37.71C98.095 103.94 53.99 196.85 38.149 443.62a64.038 64.038 0 0 0 59.882 68.003 64.023 64.023 0 0 0 68.003-59.818c15.986-241.543 58.188-302.16 74.173-323.086 0 0 95.914 47.957 127.886 127.885a290.443 290.443 0 0 1 319.712 0c31.972-79.928 127.886-127.885 127.886-127.885 19.358 25.897 79.928 127.885 79.928 543.512a79.976 79.976 0 0 1-79.928 79.928h-31.972a64.054 64.054 0 0 0-47.573 20.845 64.102 64.102 0 0 0-16.37 49.332 65.86 65.86 0 0 0 66.693 57.708h29.238c114.777 0 207.813-93.036 207.813-207.813 0-411.007-56.43-554.702-105.521-620.26z"/></svg>